# xmcd CD database file
#
# Track frame offsets:
#	150
#	18545
#	50665
#	83010
#	115130
#	147175
#	179370
#	211190
#	242860
#	274980
#
# Disc length: 4090 seconds
#
# Revision: 0
# Processed by: cddbd v1.5.2PL0 Copyright (c) Steve Scherf et al.
# Submitted via: CDex 1.70beta2
#
DISCID=8d0ff80a
DTITLE=Yoga gegen Streﬂ - Yoga gegen Streﬂ
DYEAR=1900
DGENRE=New Age
TTITLE0=Willokommen
TTITLE1=‹ber Streﬂ
TTITLE2=‹ber die einzelnen Tage
TTITLE3=Lotussitz
TTITLE4=Geschlossener Kreis
TTITLE5=Edle Haltung
TTITLE6=Donnerkeilhaltung
TTITLE7=St‰rkungshaltung
TTITLE8=Antimeteorismushaltung
TTITLE9=Krokodilhaltung
EXTD=
EXTT0=
EXTT1=
EXTT2=
EXTT3=
EXTT4=
EXTT5=
EXTT6=
EXTT7=
EXTT8=
EXTT9=
PLAYORDER=
